<svg width="92" height="48" viewBox="0 0 92 48" fill="none" xmlns="http://www.w3.org/2000/svg">
<path d="M4.44 22.136C4.392 22.376 4.248 22.584 4.008 22.76C3.784 22.92 3.464 23 3.048 23C2.696 23 2.416 22.904 2.208 22.712C2.016 22.52 1.912 22.32 1.896 22.112C1.992 21.44 2.04 20.432 2.04 19.088C2.04 18.288 1.992 17.056 1.896 15.392C1.784 13.824 1.728 12.432 1.728 11.216C1.728 10.56 1.76 9.888 1.824 9.2C1.824 8.976 1.952 8.736 2.208 8.48C2.48 8.224 2.848 8.064 3.312 8C4.832 7.84 6.696 7.76 8.904 7.76H9.672C10.248 7.76 10.808 7.864 11.352 8.072C11.912 8.28 12.192 8.64 12.192 9.152C12.192 9.488 12.112 9.752 11.952 9.944C11.792 10.136 11.496 10.232 11.064 10.232C10.856 10.232 10.616 10.216 10.344 10.184C10.072 10.152 9.88 10.128 9.768 10.112C9.16 10.016 8.688 9.968 8.352 9.968C6.496 9.968 5.096 10.096 4.152 10.352C4.152 10.88 4.168 11.736 4.2 12.92L4.224 14.456C5.056 14.456 5.8 14.424 6.456 14.36C7.112 14.28 7.488 14.232 7.584 14.216C8.416 14.12 8.968 14.072 9.24 14.072C9.624 14.072 9.944 14.16 10.2 14.336C10.472 14.496 10.608 14.752 10.608 15.104C10.608 15.904 10.048 16.304 8.928 16.304C8.656 16.304 8.416 16.312 8.208 16.328C8 16.344 7.824 16.36 7.68 16.376C7.104 16.44 6.648 16.472 6.312 16.472C5.576 16.472 4.952 16.496 4.44 16.544C4.44 17.136 4.464 17.76 4.512 18.416C4.512 18.624 4.52 18.944 4.536 19.376C4.568 19.808 4.584 20.2 4.584 20.552C4.584 20.856 4.576 21.136 4.56 21.392C4.544 21.648 4.504 21.896 4.44 22.136ZM22.3073 15.296C22.4353 15.52 22.5393 15.848 22.6193 16.28C22.6993 16.696 22.7393 17.072 22.7393 17.408C22.7393 18.032 22.6033 18.92 22.3313 20.072C21.2273 22.088 19.5953 23.096 17.4353 23.096C16.6353 23.096 15.8193 22.832 14.9873 22.304C14.1553 21.776 13.5793 21.168 13.2593 20.48C12.8273 19.104 12.6113 18.232 12.6113 17.864C12.6113 17.224 12.7473 16.544 13.0193 15.824C13.3073 15.104 13.6673 14.48 14.0993 13.952C14.3713 13.584 14.8593 13.272 15.5633 13.016C16.2673 12.744 16.9073 12.608 17.4833 12.608C18.6033 12.608 19.5553 12.824 20.3393 13.256C21.1233 13.672 21.7793 14.352 22.3073 15.296ZM20.2193 19.16C20.2993 18.952 20.3393 18.416 20.3393 17.552C20.3393 17.088 20.2513 16.632 20.0753 16.184C19.9153 15.736 19.6753 15.352 19.3553 15.032C19.3233 15 19.2353 14.952 19.0913 14.888C18.9473 14.808 18.7473 14.736 18.4913 14.672C18.2513 14.592 17.9713 14.552 17.6513 14.552C16.7553 14.552 16.0993 14.912 15.6833 15.632C15.2673 16.352 15.0592 17.168 15.0592 18.08C15.0592 18.24 15.0993 18.544 15.1793 18.992C15.2753 19.44 15.3553 19.72 15.4193 19.832C15.4673 19.944 15.5873 20.104 15.7793 20.312C15.9873 20.504 16.2353 20.68 16.5233 20.84C16.8273 20.984 17.1393 21.056 17.4593 21.056C18.1793 21.056 18.7553 20.888 19.1873 20.552C19.6193 20.2 19.9633 19.736 20.2193 19.16ZM26.1165 12.584C27.1725 12.584 27.7005 13.28 27.7005 14.672C27.7005 14.848 27.6845 15.24 27.6525 15.848C27.6205 16.552 27.6045 17.104 27.6045 17.504C27.6045 18.624 27.7565 19.528 28.0605 20.216C28.1725 20.44 28.3725 20.616 28.6605 20.744C28.9645 20.872 29.2205 20.936 29.4285 20.936C29.7485 20.936 30.0125 20.896 30.2205 20.816C30.4285 20.736 30.6205 20.616 30.7965 20.456C30.9885 20.296 31.1725 20.12 31.3485 19.928C31.6525 19.592 31.8445 19.208 31.9245 18.776C32.0205 18.328 32.0765 17.736 32.0925 17C32.0925 16.536 32.1165 16.088 32.1645 15.656C32.2605 14.952 32.3085 14.296 32.3085 13.688C32.3085 13.352 32.3965 13.072 32.5725 12.848C32.7645 12.608 33.0365 12.488 33.3885 12.488C33.5645 12.488 33.7725 12.552 34.0125 12.68C34.2685 12.792 34.4365 12.92 34.5165 13.064C34.6285 13.256 34.6845 13.52 34.6845 13.856C34.6845 14.064 34.6605 14.256 34.6125 14.432C34.5325 14.672 34.4925 14.976 34.4925 15.344C34.4925 15.536 34.5085 15.856 34.5405 16.304C34.5885 16.64 34.6125 16.984 34.6125 17.336C34.6125 18.408 34.6925 19.2 34.8525 19.712C35.0285 20.256 35.2685 20.736 35.5725 21.152C35.8925 21.488 36.1085 21.736 36.2205 21.896C36.3325 22.04 36.3885 22.168 36.3885 22.28C36.3885 22.472 36.2925 22.656 36.1005 22.832C35.9085 23.008 35.7085 23.096 35.5005 23.096C34.9085 23.096 34.3885 22.896 33.9405 22.496C33.5085 22.08 33.1885 21.552 32.9805 20.912C32.8045 21.12 32.5725 21.376 32.2845 21.68C31.9965 21.984 31.7245 22.232 31.4685 22.424C30.8445 22.872 30.0445 23.096 29.0685 23.096C28.6685 23.096 28.2285 22.976 27.7485 22.736C27.2845 22.496 26.8605 22.184 26.4765 21.8C26.0925 21.4 25.8285 20.976 25.6845 20.528C25.6685 20.496 25.6205 20.368 25.5405 20.144C25.4765 19.92 25.4445 19.584 25.4445 19.136L25.4205 15.296C25.4205 15.072 25.3645 14.72 25.2525 14.24C25.1565 13.92 25.1085 13.68 25.1085 13.52C25.1085 13.248 25.1965 13.024 25.3725 12.848C25.5645 12.672 25.8125 12.584 26.1165 12.584ZM49.1301 21.152C49.2101 21.184 49.3381 21.224 49.5141 21.272C49.6901 21.32 49.8181 21.368 49.8981 21.416C49.9781 21.464 50.0181 21.536 50.0181 21.632C50.0341 22.016 49.8901 22.336 49.5861 22.592C49.2981 22.832 48.9541 22.952 48.5541 22.952C47.9301 22.952 47.4421 22.784 47.0901 22.448C46.7381 22.112 46.4821 21.6 46.3221 20.912C46.2581 20.64 46.2261 20.264 46.2261 19.784C46.2261 19.512 46.2421 19.072 46.2741 18.464C46.3061 17.824 46.3221 17.312 46.3221 16.928C46.3221 16.368 46.1621 15.88 45.8421 15.464C45.5381 15.032 45.1061 14.816 44.5461 14.816C44.2101 14.816 43.8581 14.92 43.4901 15.128C43.1221 15.32 42.8661 15.56 42.7221 15.848C42.4821 16.312 42.3141 16.816 42.2181 17.36C42.0421 18.32 41.9541 19.32 41.9541 20.36C41.9541 20.856 41.9621 21.24 41.9781 21.512C41.9781 21.576 41.9781 21.704 41.9781 21.896C41.9941 22.072 41.9781 22.24 41.9301 22.4C41.8981 22.544 41.8341 22.68 41.7381 22.808C41.6581 22.888 41.5301 22.952 41.3541 23C41.1941 23.064 41.0421 23.096 40.8981 23.096C40.6741 23.096 40.3941 23 40.0581 22.808C39.7221 22.616 39.5301 22.4 39.4821 22.16L39.4581 21.752C39.4581 21.608 39.4741 21.44 39.5061 21.248C39.6981 20.128 39.7941 19.152 39.7941 18.32C39.7941 17.952 39.7861 17.664 39.7701 17.456L39.7461 16.328C39.7461 15.944 39.6501 15.576 39.4581 15.224C39.2661 14.856 39.0421 14.672 38.7861 14.672C38.7061 14.672 38.5941 14.704 38.4501 14.768C38.3061 14.816 38.1861 14.84 38.0901 14.84C37.9301 14.84 37.7541 14.76 37.5621 14.6C37.3861 14.44 37.2981 14.272 37.2981 14.096C37.2981 13.76 37.4101 13.488 37.6341 13.28C37.8741 13.088 38.1061 12.936 38.3301 12.824C38.5701 12.712 38.8421 12.656 39.1461 12.656C39.4021 12.656 39.6101 12.68 39.7701 12.728C39.9301 12.776 40.1461 12.88 40.4181 13.04C40.5621 13.12 40.7301 13.296 40.9221 13.568C41.1141 13.84 41.2741 14.224 41.4021 14.72C41.8181 13.952 42.3301 13.416 42.9381 13.112C43.5621 12.792 44.3541 12.632 45.3141 12.632C45.6821 12.632 46.0741 12.752 46.4901 12.992C46.9221 13.232 47.2901 13.512 47.5941 13.832C47.8821 14.184 48.1221 14.624 48.3141 15.152C48.5061 15.664 48.6021 16.128 48.6021 16.544C48.6021 16.784 48.5861 17.176 48.5541 17.72C48.5061 18.152 48.4821 18.608 48.4821 19.088C48.4821 20.208 48.6981 20.896 49.1301 21.152ZM51.7564 14.648C51.5324 14.616 51.3484 14.528 51.2044 14.384C51.0764 14.224 51.0124 14.032 51.0124 13.808C51.0124 13.52 51.1244 13.28 51.3484 13.088C51.3964 13.04 51.4764 13 51.5884 12.968C51.7004 12.92 51.7884 12.88 51.8524 12.848C52.2044 12.736 52.4284 12.648 52.5244 12.584C52.8924 12.36 53.1404 11.992 53.2684 11.48C53.3964 10.872 53.4764 10.456 53.5084 10.232C53.5404 9.88 53.6524 9.616 53.8444 9.44C54.0524 9.248 54.3084 9.152 54.6124 9.152C55.0124 9.152 55.2924 9.256 55.4524 9.464C55.6124 9.672 55.6924 10.056 55.6924 10.616C55.6924 11.352 55.5164 12.048 55.1644 12.704C55.3884 12.704 55.7564 12.688 56.2684 12.656C57.0364 12.624 57.5724 12.608 57.8764 12.608C58.1484 12.608 58.3804 12.68 58.5724 12.824C58.7804 12.952 58.8844 13.144 58.8844 13.4C58.8844 14.008 58.6044 14.368 58.0444 14.48C57.5324 14.624 56.6044 14.712 55.2604 14.744C55.1484 16.312 55.0924 17.552 55.0924 18.464C55.0924 19.024 55.1164 19.424 55.1644 19.664C55.2604 20.16 55.4204 20.528 55.6444 20.768C55.8844 20.992 56.2364 21.104 56.7004 21.104C56.9244 21.104 57.2604 21.048 57.7084 20.936C57.9804 20.856 58.1964 20.816 58.3564 20.816C58.5644 20.816 58.7244 20.888 58.8364 21.032C58.9484 21.176 59.0044 21.368 59.0044 21.608C59.0044 22.04 58.7244 22.4 58.1644 22.688C57.6044 22.96 56.9404 23.096 56.1724 23.096C55.6924 23.096 55.2204 22.984 54.7564 22.76C54.2924 22.52 53.9004 22.232 53.5804 21.896C53.5164 21.864 53.4204 21.688 53.2924 21.368C53.1804 21.048 53.0684 20.696 52.9564 20.312C52.9084 20.12 52.8844 19.656 52.8844 18.92C52.8844 18.216 52.9324 17 53.0284 15.272L53.0524 14.744C52.9404 14.744 52.7324 14.736 52.4284 14.72C52.1244 14.688 51.9004 14.664 51.7564 14.648ZM71.6289 21.848C71.6289 22.2 71.4369 22.496 71.0529 22.736C70.6689 22.976 70.3169 23.096 69.9969 23.096C69.4049 23.096 68.9249 23.024 68.5569 22.88C68.2049 22.72 67.8689 22.432 67.5489 22.016C67.1489 22.384 66.5889 22.664 65.8689 22.856C65.1489 23.032 64.4849 23.12 63.8769 23.12C62.8849 23.12 62.0609 22.856 61.4049 22.328C60.7649 21.784 60.4449 20.992 60.4449 19.952C60.4449 19.504 60.5809 19.056 60.8529 18.608C61.1249 18.144 61.4609 17.776 61.8609 17.504C62.2929 17.216 62.7809 17.024 63.3249 16.928C63.8689 16.816 64.5009 16.76 65.2209 16.76C65.5569 16.76 65.9569 16.824 66.4209 16.952C66.8849 17.08 67.2529 17.216 67.5249 17.36V16.976C67.5249 16.112 67.3089 15.52 66.8769 15.2C66.4609 14.864 65.7889 14.696 64.8609 14.696C64.5729 14.696 64.3089 14.744 64.0689 14.84C63.8449 14.92 63.5809 15.04 63.2769 15.2C62.9889 15.36 62.7169 15.44 62.4609 15.44C62.2369 15.44 62.0209 15.352 61.8129 15.176C61.6049 14.984 61.5009 14.784 61.5009 14.576C61.5009 13.904 61.9169 13.416 62.7489 13.112C63.5969 12.792 64.4609 12.632 65.3409 12.632C65.7889 12.632 66.3009 12.728 66.8769 12.92C67.4529 13.096 67.9409 13.344 68.3409 13.664C68.8209 14.064 69.1889 14.544 69.4449 15.104C69.7169 15.664 69.8529 16.272 69.8529 16.928C69.8529 17.136 69.8369 17.448 69.8049 17.864C69.7729 18.312 69.7569 18.696 69.7569 19.016L69.7329 19.664C69.7009 20.016 69.6849 20.296 69.6849 20.504C69.6849 20.696 69.7489 20.864 69.8769 21.008C70.0209 21.136 70.1889 21.2 70.3809 21.2L71.0529 21.176C71.2289 21.176 71.3649 21.248 71.4609 21.392C71.5729 21.52 71.6289 21.672 71.6289 21.848ZM63.8769 21.224C64.5649 21.224 65.1409 21.152 65.6049 21.008C66.0689 20.864 66.6289 20.6 67.2849 20.216C67.3489 19.944 67.3889 19.584 67.4049 19.136C66.5249 18.72 65.7969 18.512 65.2209 18.512C64.6769 18.512 64.2369 18.536 63.9009 18.584C63.5649 18.616 63.2609 18.752 62.9889 18.992C62.7169 19.232 62.5809 19.616 62.5809 20.144C62.5809 20.448 62.7249 20.704 63.0129 20.912C63.3169 21.12 63.6049 21.224 63.8769 21.224ZM74.4023 7.592C74.9623 7.64 75.4503 7.792 75.8663 8.048C76.2823 8.288 76.4903 8.656 76.4903 9.152C76.4903 9.52 76.3143 9.816 75.9623 10.04C75.6263 10.248 75.2183 10.352 74.7383 10.352C74.2743 10.352 73.9543 10.232 73.7783 9.992C73.6023 9.752 73.5143 9.504 73.5143 9.248C73.5143 8.768 73.5623 8.368 73.6583 8.048C73.7703 7.728 74.0183 7.576 74.4023 7.592ZM76.3223 18.224V18.92C76.3223 19.544 76.3383 20.136 76.3703 20.696C76.4183 21.24 76.4743 21.792 76.5383 22.352C76.5223 22.512 76.4023 22.68 76.1783 22.856C75.9543 23.016 75.7543 23.096 75.5783 23.096C75.2743 23.096 74.9623 23.04 74.6423 22.928C74.3383 22.8 74.1543 22.648 74.0903 22.472C73.9943 21.96 73.9463 21.504 73.9463 21.104C73.9463 19.792 73.9063 18.32 73.8263 16.688C73.7623 15.248 73.7303 14.24 73.7303 13.664C73.7303 13.376 73.8743 13.128 74.1623 12.92C74.4503 12.712 74.7543 12.608 75.0742 12.608C75.5383 12.608 75.8583 12.712 76.0343 12.92C76.2263 13.128 76.3223 13.456 76.3223 13.904V18.224ZM90.2629 21.152C90.3429 21.184 90.4709 21.224 90.6469 21.272C90.8229 21.32 90.9509 21.368 91.0309 21.416C91.1109 21.464 91.1509 21.536 91.1509 21.632C91.1669 22.016 91.0229 22.336 90.7189 22.592C90.4309 22.832 90.0869 22.952 89.6869 22.952C89.0629 22.952 88.5749 22.784 88.2229 22.448C87.8709 22.112 87.6149 21.6 87.4549 20.912C87.3909 20.64 87.3589 20.264 87.3589 19.784C87.3589 19.512 87.3749 19.072 87.4069 18.464C87.4389 17.824 87.4549 17.312 87.4549 16.928C87.4549 16.24 87.3829 15.72 87.2389 15.368C87.0949 15 86.7509 14.816 86.2069 14.816C85.6469 14.816 85.1429 15.04 84.6949 15.488C84.2629 15.936 83.8949 16.608 83.5909 17.504C83.1749 18.752 82.9429 20.408 82.8949 22.472C82.8949 22.584 82.7749 22.72 82.5349 22.88C82.3109 23.024 82.0389 23.096 81.7189 23.096C81.1269 23.096 80.7589 22.784 80.6149 22.16L80.5909 21.752C80.5909 21.608 80.6069 21.44 80.6389 21.248C80.8309 20.128 80.9269 19.152 80.9269 18.32C80.9269 17.952 80.9189 17.664 80.9029 17.456L80.8789 16.328C80.8789 15.944 80.7829 15.576 80.5909 15.224C80.3989 14.856 80.1749 14.672 79.9189 14.672C79.8389 14.672 79.7269 14.704 79.5829 14.768C79.4389 14.816 79.3189 14.84 79.2229 14.84C79.0629 14.84 78.8869 14.76 78.6949 14.6C78.5189 14.44 78.4309 14.272 78.4309 14.096C78.4309 13.76 78.5429 13.488 78.7669 13.28C79.0069 13.088 79.2389 12.936 79.4629 12.824C79.7029 12.712 79.9749 12.656 80.2789 12.656C80.5349 12.656 80.7429 12.68 80.9029 12.728C81.0629 12.776 81.2789 12.88 81.5509 13.04C81.7109 13.12 81.8949 13.344 82.1029 13.712C82.3109 14.08 82.4709 14.6 82.5829 15.272C82.9029 14.68 83.4389 14.056 84.1909 13.4C84.7509 12.888 85.5589 12.632 86.6149 12.632C87.5749 12.632 88.3349 12.984 88.8949 13.688C89.4549 14.376 89.7349 15.328 89.7349 16.544C89.7349 16.784 89.7189 17.176 89.6869 17.72C89.6389 18.152 89.6149 18.608 89.6149 19.088C89.6149 20.208 89.8309 20.896 90.2629 21.152Z" fill="black"/>
<path d="M27.8789 39.6504C28.1003 39.7546 28.3216 39.8587 28.543 39.9629C28.7708 40.0605 29.0215 40.1582 29.2949 40.2559C29.3405 40.1322 29.3633 39.9368 29.3633 39.6699C29.3633 39.4876 29.36 39.3477 29.3535 39.25C29.3275 38.7487 29.2754 37.987 29.1973 36.9648C29.1191 35.8971 29.0605 35.028 29.0215 34.3574C28.9824 33.6868 28.9629 33.0521 28.9629 32.4531C28.9629 32.2708 28.9694 32.0169 28.9824 31.6914L29.0117 31.2324L27.5566 31.0273C27.472 30.7865 27.4069 30.5228 27.3613 30.2363C27.3158 29.9434 27.293 29.6602 27.293 29.3867C27.293 29.1784 27.3092 28.9505 27.3418 28.7031C28.123 28.4036 29.1061 28.1888 30.291 28.0586C31.4759 27.9284 32.6999 27.8633 33.9629 27.8633C35.2389 27.8633 36.1178 27.9186 36.5996 28.0293L36.6094 28.0195C36.9609 28.2279 37.2669 28.446 37.5273 28.6738C37.7943 28.8952 38.0482 29.1654 38.2891 29.4844C38.2891 29.9336 38.2337 30.4512 38.123 31.0371C38.0189 31.6165 37.8822 32.1504 37.7129 32.6387C37.5501 33.127 37.3809 33.472 37.2051 33.6738C37.0488 33.7454 36.8796 33.8008 36.6973 33.8398C36.515 33.8724 36.2936 33.8887 36.0332 33.8887C35.7598 33.8887 35.5514 33.8691 35.4082 33.8301C35.2715 33.791 35.1217 33.7259 34.959 33.6348L34.627 31.1836C34.4121 31.138 34.1517 31.1152 33.8457 31.1152C33.5723 31.1152 33.2826 31.1315 32.9766 31.1641C32.957 31.4701 32.9342 31.9746 32.9082 32.6777C32.8952 33.1921 32.8757 33.6901 32.8496 34.1719L32.7715 35.8711C34.36 35.6758 35.6849 35.4707 36.7461 35.2559C37.0065 35.64 37.1367 36.1348 37.1367 36.7402C37.1367 37.1374 37.0846 37.5182 36.9805 37.8828C36.8763 38.2474 36.7624 38.498 36.6387 38.6348C36.4368 38.6673 36.1699 38.6836 35.8379 38.6836C35.3431 38.6836 34.8125 38.638 34.2461 38.5469C33.6862 38.4492 33.1523 38.3158 32.6445 38.1465C32.6055 38.7259 32.5566 39.2858 32.498 39.8262C32.4395 40.3405 32.3581 40.7897 32.2539 41.1738C32.1562 41.5514 32.0033 41.8802 31.7949 42.1602C31.528 42.5117 31.1862 42.7721 30.7695 42.9414C30.3594 43.1107 29.9167 43.1953 29.4414 43.1953C29.0052 43.1953 28.5755 43.0944 28.1523 42.8926C27.7357 42.6908 27.3939 42.349 27.127 41.8672C27.1335 41.444 27.1855 41.0632 27.2832 40.7246C27.3874 40.3861 27.5859 40.028 27.8789 39.6504ZM38.8262 28.9863C38.8262 28.4134 39.0117 27.9479 39.3828 27.5898C39.7604 27.2318 40.3594 27.0527 41.1797 27.0527C42 27.0527 42.5957 27.2318 42.9668 27.5898C43.3444 27.9479 43.5332 28.4134 43.5332 28.9863C43.5332 29.3118 43.4193 29.6113 43.1914 29.8848C42.9701 30.1582 42.6771 30.3763 42.3125 30.5391C41.9479 30.6953 41.5703 30.7734 41.1797 30.7734C40.7565 30.7734 40.3626 30.6823 39.998 30.5C39.64 30.3112 39.3535 30.0768 39.1387 29.7969C38.9303 29.5169 38.8262 29.2467 38.8262 28.9863ZM38.3477 34.5723C38.263 34.2533 38.2044 33.9635 38.1719 33.7031C38.1393 33.4362 38.123 33.1595 38.123 32.873L38.1328 32.5996C38.2695 32.4238 38.4811 32.248 38.7676 32.0723C39.0605 31.89 39.3991 31.737 39.7832 31.6133C40.1738 31.4896 40.5775 31.4277 40.9941 31.4277C41.9056 31.4277 42.5534 31.6328 42.9375 32.043C43.3216 32.4531 43.5137 33.0911 43.5137 33.957C43.5137 34.4779 43.4388 35.1582 43.2891 35.998C43.1458 36.8379 42.9701 37.6549 42.7617 38.4492C42.5599 39.237 42.3841 39.8001 42.2344 40.1387L42.2539 40.1582L43.6992 39.6309C43.9596 39.8522 44.1549 40.0964 44.2852 40.3633C44.4219 40.6302 44.5098 40.9395 44.5488 41.291C44.5488 41.3366 44.4056 41.5254 44.1191 41.8574C43.8327 42.1829 43.4518 42.4889 42.9766 42.7754C42.5078 43.0553 41.9642 43.1953 41.3457 43.1953C40.7207 43.1953 40.2129 43.026 39.8223 42.6875C39.4382 42.349 39.2461 41.7695 39.2461 40.9492C39.2461 39.9922 39.2721 38.9766 39.3242 37.9023C39.3763 36.8281 39.4577 35.7865 39.5684 34.7773L38.3477 34.5723ZM46.3066 39.6016C46.3066 38.5404 46.3197 37.7396 46.3457 37.1992C46.3717 36.6523 46.4401 35.8516 46.5508 34.7969L45.418 34.6504C45.2812 34.2272 45.1901 33.8496 45.1445 33.5176C45.1055 33.1855 45.0859 32.7559 45.0859 32.2285C45.1901 32.1374 45.3626 32.0299 45.6035 31.9062C45.8509 31.776 46.1439 31.6654 46.4824 31.5742C46.821 31.4766 47.1628 31.4277 47.5078 31.4277C48.2956 31.4277 48.8522 31.597 49.1777 31.9355C49.5098 32.2741 49.6758 32.7819 49.6758 33.459C49.6758 33.8366 49.6204 34.3477 49.5098 34.9922C49.3275 36.0273 49.2363 36.571 49.2363 36.623C49.2363 36.6556 49.2591 36.6882 49.3047 36.7207C49.3503 36.7467 49.3991 36.7598 49.4512 36.7598C49.5098 36.7598 49.5488 36.737 49.5684 36.6914C49.8288 35.6562 50.0892 34.7904 50.3496 34.0938C50.61 33.3971 51.0039 32.7786 51.5312 32.2383C52.0586 31.6979 52.7422 31.4277 53.582 31.4277C54.6237 31.4277 55.3724 31.7467 55.8281 32.3848C56.2839 33.0163 56.5117 33.8138 56.5117 34.7773C56.5117 35.6367 56.4108 36.4668 56.209 37.2676C56.0072 38.0618 55.7565 38.8919 55.457 39.7578C55.4701 39.7253 55.4245 39.8522 55.3203 40.1387L55.3398 40.1582L56.7656 39.5723C57.2734 40.0085 57.5697 40.5879 57.6543 41.3105C57.6543 41.3561 57.5078 41.5417 57.2148 41.8672C56.9284 42.1927 56.5475 42.4954 56.0723 42.7754C55.597 43.0553 55.0501 43.1953 54.4316 43.1953C53.8132 43.1953 53.3086 43.0293 52.918 42.6973C52.5273 42.3652 52.332 41.7988 52.332 40.998C52.332 40.36 52.3581 39.5072 52.4102 38.4395C52.4622 37.3717 52.5143 36.5124 52.5664 35.8613C52.3971 35.679 52.1888 35.5814 51.9414 35.5684C51.7135 35.8613 51.3783 36.4473 50.9355 37.3262C50.4928 38.2051 50.1803 38.8626 49.998 39.2988C49.985 39.39 49.9785 39.4779 49.9785 39.5625C49.9785 39.888 50.0273 40.3275 50.125 40.8809C50.2227 41.4277 50.3431 41.9388 50.4863 42.4141C50.3691 42.6354 50.1283 42.821 49.7637 42.9707C49.3991 43.1204 48.9499 43.1953 48.416 43.1953C47.9342 43.1953 47.5469 43.1562 47.2539 43.0781C46.9674 43 46.7656 42.9186 46.6484 42.834C46.5312 42.7428 46.4727 42.6875 46.4727 42.668C46.4661 42.6094 46.4499 42.4564 46.4238 42.209C46.3978 41.9551 46.3717 41.6035 46.3457 41.1543C46.3197 40.6986 46.3066 40.181 46.3066 39.6016ZM58.4453 37.3652C58.4453 36.3757 58.582 35.4284 58.8555 34.5234C59.1354 33.6185 59.5716 32.8763 60.1641 32.2969C60.763 31.7174 61.515 31.4277 62.4199 31.4277C63.4355 31.4277 64.4056 31.75 65.3301 32.3945L65.4863 32.2969C65.4668 31.5352 65.3724 30.8451 65.2031 30.2266L63.2207 30.0996C63.1296 29.9824 63.0579 29.8099 63.0059 29.582C62.9538 29.3477 62.9277 29.1068 62.9277 28.8594C62.9277 28.5273 62.9668 28.2409 63.0449 28C63.4355 27.7201 63.9368 27.5085 64.5488 27.3652C65.1608 27.222 65.7728 27.1504 66.3848 27.1504C67.0618 27.1504 67.5729 27.2936 67.918 27.5801C68.263 27.86 68.4941 28.2865 68.6113 28.8594C68.735 29.4258 68.7969 30.2135 68.7969 31.2227C68.7969 32.5508 68.7415 34.0579 68.6309 35.7441C68.5202 37.4303 68.377 38.8073 68.2012 39.875L68.1621 40.041L69.2949 39.5527C69.4837 39.7546 69.6497 40.002 69.793 40.2949C69.9427 40.5814 70.0371 40.9134 70.0762 41.291C69.985 41.4863 69.7865 41.737 69.4805 42.043C69.1745 42.3424 68.8001 42.6094 68.3574 42.8438C67.9147 43.0781 67.4525 43.1953 66.9707 43.1953C66.4303 43.1953 66.0137 43.0358 65.7207 42.7168C65.4342 42.3913 65.291 41.9779 65.291 41.4766C65.291 41.3464 65.3236 41.0794 65.3887 40.6758C65.4603 40.2721 65.5189 39.9922 65.5645 39.8359L65.2715 39.748C64.9395 40.9134 64.5 41.7793 63.9531 42.3457C63.4062 42.9121 62.7292 43.1953 61.9219 43.1953C61.056 43.1953 60.3626 42.9089 59.8418 42.3359C59.3275 41.7565 58.9661 41.0306 58.7578 40.1582C58.5495 39.2858 58.4453 38.3548 58.4453 37.3652ZM65.1445 37.1895C65.1836 36.9551 65.2031 36.6816 65.2031 36.3691C65.2031 36.1673 65.1934 35.9753 65.1738 35.793C65.1608 35.6107 65.1445 35.4805 65.125 35.4023C64.8646 35.2135 64.5684 35.0801 64.2363 35.002C63.9108 34.9238 63.6113 34.8848 63.3379 34.8848C63.1686 34.8848 62.9863 34.901 62.791 34.9336C62.6608 35.0638 62.5566 35.347 62.4785 35.7832C62.4004 36.2129 62.3613 36.6979 62.3613 37.2383C62.3613 37.8177 62.4004 38.3809 62.4785 38.9277C62.5632 39.4681 62.6803 39.8913 62.8301 40.1973C62.9342 40.1973 63.1361 40.0378 63.4355 39.7188C63.7415 39.3932 64.0573 38.9961 64.3828 38.5273C64.7083 38.0521 64.9622 37.6061 65.1445 37.1895ZM70.7402 37.3262C70.7402 36.1999 70.929 35.194 71.3066 34.3086C71.6842 33.4232 72.2669 32.7233 73.0547 32.209C73.849 31.6882 74.8385 31.4277 76.0234 31.4277C76.6419 31.4277 77.2604 31.5026 77.8789 31.6523C78.4974 31.7956 79.0215 32.0365 79.4512 32.375C79.8483 32.694 80.1348 33.1172 80.3105 33.6445C80.4928 34.1654 80.584 34.7448 80.584 35.3828C80.584 35.806 80.5482 36.2389 80.4766 36.6816C80.3984 36.8118 80.2454 36.9844 80.0176 37.1992C79.7897 37.4076 79.5228 37.6126 79.2168 37.8145C78.9108 38.0163 78.6146 38.1725 78.3281 38.2832C78.0547 38.3027 77.7715 38.3125 77.4785 38.3125C76.9642 38.3125 76.4434 38.2897 75.916 38.2441C75.3887 38.1986 74.9264 38.1465 74.5293 38.0879C74.5814 38.6413 74.7507 39.123 75.0371 39.5332C75.3236 39.9434 75.7793 40.1484 76.4043 40.1484C76.4629 40.1484 76.5573 40.1419 76.6875 40.1289C77.0846 40.0898 77.5469 39.9857 78.0742 39.8164C78.6081 39.6406 79.1387 39.4388 79.666 39.2109C79.9134 39.4583 80.0957 39.7057 80.2129 39.9531C80.3301 40.2005 80.4115 40.5553 80.457 41.0176C80.2552 41.252 79.9264 41.5384 79.4707 41.877C79.0215 42.2155 78.4714 42.5215 77.8203 42.7949C77.1693 43.0618 76.4889 43.1953 75.7793 43.1953C74.7116 43.1953 73.7969 42.9382 73.0352 42.4238C72.2799 41.903 71.707 41.1999 71.3164 40.3145C70.9323 39.4225 70.7402 38.4264 70.7402 37.3262ZM77.0293 35.0801C76.9382 34.9824 76.7852 34.9076 76.5703 34.8555C76.3555 34.7969 76.1309 34.7676 75.8965 34.7676C75.7077 34.7676 75.5156 34.7839 75.3203 34.8164C75.1315 34.849 75.0176 34.8848 74.9785 34.9238C74.7572 35.36 74.6172 35.8548 74.5586 36.4082L77.166 36.1543L77.0293 35.0801ZM82.8691 40.3828C82.8691 40.1029 82.8757 39.416 82.8887 38.3223C82.9082 36.1738 82.918 34.9987 82.918 34.7969L82.0195 34.6504C81.8958 34.2793 81.8079 33.931 81.7559 33.6055C81.7038 33.2799 81.6777 32.9512 81.6777 32.6191C81.6777 32.4824 81.681 32.3783 81.6875 32.3066C81.7982 32.209 81.9707 32.0918 82.2051 31.9551C82.4395 31.8184 82.7161 31.6979 83.0352 31.5938C83.3542 31.4831 83.6797 31.4277 84.0117 31.4277C84.7865 31.4277 85.3464 31.6003 85.6914 31.9453C86.043 32.2904 86.2188 32.7949 86.2188 33.459C86.2188 33.8626 86.1667 34.3802 86.0625 35.0117C85.9648 35.6367 85.8639 36.0827 85.7598 36.3496L86.1113 36.4082L86.6973 34.2012C86.9577 33.2051 87.2832 32.4954 87.6738 32.0723C88.0645 31.6426 88.5039 31.4277 88.9922 31.4277C89.3112 31.4277 89.627 31.4766 89.9395 31.5742C90.2585 31.6719 90.5026 31.7923 90.6719 31.9355C90.8542 32.3392 90.9453 32.8763 90.9453 33.5469C90.9453 34.0156 90.8997 34.4811 90.8086 34.9434C90.7174 35.3991 90.6003 35.7669 90.457 36.0469L88.4062 35.7734C87.9896 36.2161 87.5469 36.8314 87.0781 37.6191C86.6094 38.4004 86.235 39.1198 85.9551 39.7773L85.9453 40.2852L87.8398 39.8359C88.1589 40.3242 88.3444 40.9036 88.3965 41.5742C88.3965 41.6133 88.25 41.7728 87.957 42.0527C87.6641 42.3327 87.2767 42.5931 86.7949 42.834C86.3197 43.0684 85.7728 43.1855 85.1543 43.1855C84.5163 43.1855 83.9824 43.0163 83.5527 42.6777C83.1296 42.3327 82.9049 41.7533 82.8789 40.9395C82.8724 40.8418 82.8691 40.6562 82.8691 40.3828Z" fill="#61DF93"/>
</svg>
